<svg xmlns="http://www.w3.org/2000/svg" viewBox="0 0 1600 1000" width="1600" height="1000" preserveAspectRatio="xMidYMax slice">
<g fill="none" stroke="#5d4c31" stroke-opacity="0.12" stroke-linecap="round" stroke-linejoin="round">
<g transform="translate(0 14)"><path d="M0 0 L1600 0 M0 64 L1600 64" stroke-width="1.4" opacity="1" /><path d="M0 9 L1600 9 M0 55 L1600 55" stroke-width="0.7" opacity="0.8" /><polygon points="48,10.2 69.8,32 48,53.8 26.2,32" stroke-width="1.2"/><polygon points="48,20 60,32 48,44 36,32" stroke-width="0.8" opacity="0.8"/><circle cx="48" cy="32" r="2.2" stroke-width="0.8"/><path d="M0 20 q-10.9 -2.2 -4.4 10.9 q1.1 9.8 7.6 10.9" stroke-width="0.9" opacity="1" /><path d="M0 44 q-10.9 2.2 -4.4 -10.9 q1.1 -9.8 7.6 -10.9" stroke-width="0.9" opacity="1" /><path d="M96 20 q10.9 -2.2 4.4 10.9 q-1.1 9.8 -7.6 10.9" stroke-width="0.9" opacity="1" /><path d="M96 44 q10.9 2.2 4.4 -10.9 q-1.1 -9.8 -7.6 -10.9" stroke-width="0.9" opacity="1" /><polygon points="144,10.2 165.8,32 144,53.8 122.2,32" stroke-width="1.2"/><polygon points="144,20 156,32 144,44 132,32" stroke-width="0.8" opacity="0.8"/><circle cx="144" cy="32" r="2.2" stroke-width="0.8"/><path d="M96 20 q-10.9 -2.2 -4.4 10.9 q1.1 9.8 7.6 10.9" stroke-width="0.9" opacity="1" /><path d="M96 44 q-10.9 2.2 -4.4 -10.9 q1.1 -9.8 7.6 -10.9" stroke-width="0.9" opacity="1" /><path d="M192 20 q10.9 -2.2 4.4 10.9 q-1.1 9.8 -7.6 10.9" stroke-width="0.9" opacity="1" /><path d="M192 44 q10.9 2.2 4.4 -10.9 q-1.1 -9.8 -7.6 -10.9" stroke-width="0.9" opacity="1" /><polygon points="240,10.2 261.8,32 240,53.8 218.2,32" stroke-width="1.2"/><polygon points="240,20 252,32 240,44 228,32" stroke-width="0.8" opacity="0.8"/><circle cx="240" cy="32" r="2.2" stroke-width="0.8"/><path d="M192 20 q-10.9 -2.2 -4.4 10.9 q1.1 9.8 7.6 10.9" stroke-width="0.9" opacity="1" /><path d="M192 44 q-10.9 2.2 -4.4 -10.9 q1.1 -9.8 7.6 -10.9" stroke-width="0.9" opacity="1" /><path d="M288 20 q10.9 -2.2 4.4 10.9 q-1.1 9.8 -7.6 10.9" stroke-width="0.9" opacity="1" /><path d="M288 44 q10.9 2.2 4.4 -10.9 q-1.1 -9.8 -7.6 -10.9" stroke-width="0.9" opacity="1" /><polygon points="336,10.2 357.8,32 336,53.8 314.2,32" stroke-width="1.2"/><polygon points="336,20 348,32 336,44 324,32" stroke-width="0.8" opacity="0.8"/><circle cx="336" cy="32" r="2.2" stroke-width="0.8"/><path d="M288 20 q-10.9 -2.2 -4.4 10.9 q1.1 9.8 7.6 10.9" stroke-width="0.9" opacity="1" /><path d="M288 44 q-10.9 2.2 -4.4 -10.9 q1.1 -9.8 7.6 -10.9" stroke-width="0.9" opacity="1" /><path d="M384 20 q10.9 -2.2 4.4 10.9 q-1.1 9.8 -7.6 10.9" stroke-width="0.9" opacity="1" /><path d="M384 44 q10.9 2.2 4.4 -10.9 q-1.1 -9.8 -7.6 -10.9" stroke-width="0.9" opacity="1" /><polygon points="432,10.2 453.8,32 432,53.8 410.2,32" stroke-width="1.2"/><polygon points="432,20 444,32 432,44 420,32" stroke-width="0.8" opacity="0.8"/><circle cx="432" cy="32" r="2.2" stroke-width="0.8"/><path d="M384 20 q-10.9 -2.2 -4.4 10.9 q1.1 9.8 7.6 10.9" stroke-width="0.9" opacity="1" /><path d="M384 44 q-10.9 2.2 -4.4 -10.9 q1.1 -9.8 7.6 -10.9" stroke-width="0.9" opacity="1" /><path d="M480 20 q10.9 -2.2 4.4 10.9 q-1.1 9.8 -7.6 10.9" stroke-width="0.9" opacity="1" /><path d="M480 44 q10.9 2.2 4.4 -10.9 q-1.1 -9.8 -7.6 -10.9" stroke-width="0.9" opacity="1" /><polygon points="528,10.2 549.8,32 528,53.8 506.2,32" stroke-width="1.2"/><polygon points="528,20 540,32 528,44 516,32" stroke-width="0.8" opacity="0.8"/><circle cx="528" cy="32" r="2.2" stroke-width="0.8"/><path d="M480 20 q-10.9 -2.2 -4.4 10.9 q1.1 9.8 7.6 10.9" stroke-width="0.9" opacity="1" /><path d="M480 44 q-10.9 2.2 -4.4 -10.9 q1.1 -9.8 7.6 -10.9" stroke-width="0.9" opacity="1" /><path d="M576 20 q10.9 -2.2 4.4 10.9 q-1.1 9.8 -7.6 10.9" stroke-width="0.9" opacity="1" /><path d="M576 44 q10.9 2.2 4.4 -10.9 q-1.1 -9.8 -7.6 -10.9" stroke-width="0.9" opacity="1" /><polygon points="624,10.2 645.8,32 624,53.8 602.2,32" stroke-width="1.2"/><polygon points="624,20 636,32 624,44 612,32" stroke-width="0.8" opacity="0.8"/><circle cx="624" cy="32" r="2.2" stroke-width="0.8"/><path d="M576 20 q-10.9 -2.2 -4.4 10.9 q1.1 9.8 7.6 10.9" stroke-width="0.9" opacity="1" /><path d="M576 44 q-10.9 2.2 -4.4 -10.9 q1.1 -9.8 7.6 -10.9" stroke-width="0.9" opacity="1" /><path d="M672 20 q10.9 -2.2 4.4 10.9 q-1.1 9.8 -7.6 10.9" stroke-width="0.9" opacity="1" /><path d="M672 44 q10.9 2.2 4.4 -10.9 q-1.1 -9.8 -7.6 -10.9" stroke-width="0.9" opacity="1" /><polygon points="720,10.2 741.8,32 720,53.8 698.2,32" stroke-width="1.2"/><polygon points="720,20 732,32 720,44 708,32" stroke-width="0.8" opacity="0.8"/><circle cx="720" cy="32" r="2.2" stroke-width="0.8"/><path d="M672 20 q-10.9 -2.2 -4.4 10.9 q1.1 9.8 7.6 10.9" stroke-width="0.9" opacity="1" /><path d="M672 44 q-10.9 2.2 -4.4 -10.9 q1.1 -9.8 7.6 -10.9" stroke-width="0.9" opacity="1" /><path d="M768 20 q10.9 -2.2 4.4 10.9 q-1.1 9.8 -7.6 10.9" stroke-width="0.9" opacity="1" /><path d="M768 44 q10.9 2.2 4.4 -10.9 q-1.1 -9.8 -7.6 -10.9" stroke-width="0.9" opacity="1" /><polygon points="816,10.2 837.8,32 816,53.8 794.2,32" stroke-width="1.2"/><polygon points="816,20 828,32 816,44 804,32" stroke-width="0.8" opacity="0.8"/><circle cx="816" cy="32" r="2.2" stroke-width="0.8"/><path d="M768 20 q-10.9 -2.2 -4.4 10.9 q1.1 9.8 7.6 10.9" stroke-width="0.9" opacity="1" /><path d="M768 44 q-10.9 2.2 -4.4 -10.9 q1.1 -9.8 7.6 -10.9" stroke-width="0.9" opacity="1" /><path d="M864 20 q10.9 -2.2 4.4 10.9 q-1.1 9.8 -7.6 10.9" stroke-width="0.9" opacity="1" /><path d="M864 44 q10.9 2.2 4.4 -10.9 q-1.1 -9.8 -7.6 -10.9" stroke-width="0.9" opacity="1" /><polygon points="912,10.2 933.8,32 912,53.8 890.2,32" stroke-width="1.2"/><polygon points="912,20 924,32 912,44 900,32" stroke-width="0.8" opacity="0.8"/><circle cx="912" cy="32" r="2.2" stroke-width="0.8"/><path d="M864 20 q-10.9 -2.2 -4.4 10.9 q1.1 9.8 7.6 10.9" stroke-width="0.9" opacity="1" /><path d="M864 44 q-10.9 2.2 -4.4 -10.9 q1.1 -9.8 7.6 -10.9" stroke-width="0.9" opacity="1" /><path d="M960 20 q10.9 -2.2 4.4 10.9 q-1.1 9.8 -7.6 10.9" stroke-width="0.9" opacity="1" /><path d="M960 44 q10.9 2.2 4.4 -10.9 q-1.1 -9.8 -7.6 -10.9" stroke-width="0.9" opacity="1" /><polygon points="1008,10.2 1029.8,32 1008,53.8 986.2,32" stroke-width="1.2"/><polygon points="1008,20 1020,32 1008,44 996,32" stroke-width="0.8" opacity="0.8"/><circle cx="1008" cy="32" r="2.2" stroke-width="0.8"/><path d="M960 20 q-10.9 -2.2 -4.4 10.9 q1.1 9.8 7.6 10.9" stroke-width="0.9" opacity="1" /><path d="M960 44 q-10.9 2.2 -4.4 -10.9 q1.1 -9.8 7.6 -10.9" stroke-width="0.9" opacity="1" /><path d="M1056 20 q10.9 -2.2 4.4 10.9 q-1.1 9.8 -7.6 10.9" stroke-width="0.9" opacity="1" /><path d="M1056 44 q10.9 2.2 4.4 -10.9 q-1.1 -9.8 -7.6 -10.9" stroke-width="0.9" opacity="1" /><polygon points="1104,10.2 1125.8,32 1104,53.8 1082.2,32" stroke-width="1.2"/><polygon points="1104,20 1116,32 1104,44 1092,32" stroke-width="0.8" opacity="0.8"/><circle cx="1104" cy="32" r="2.2" stroke-width="0.8"/><path d="M1056 20 q-10.9 -2.2 -4.4 10.9 q1.1 9.8 7.6 10.9" stroke-width="0.9" opacity="1" /><path d="M1056 44 q-10.9 2.2 -4.4 -10.9 q1.1 -9.8 7.6 -10.9" stroke-width="0.9" opacity="1" /><path d="M1152 20 q10.9 -2.2 4.4 10.9 q-1.1 9.8 -7.6 10.9" stroke-width="0.9" opacity="1" /><path d="M1152 44 q10.9 2.2 4.4 -10.9 q-1.1 -9.8 -7.6 -10.9" stroke-width="0.9" opacity="1" /><polygon points="1200,10.2 1221.8,32 1200,53.8 1178.2,32" stroke-width="1.2"/><polygon points="1200,20 1212,32 1200,44 1188,32" stroke-width="0.8" opacity="0.8"/><circle cx="1200" cy="32" r="2.2" stroke-width="0.8"/><path d="M1152 20 q-10.9 -2.2 -4.4 10.9 q1.1 9.8 7.6 10.9" stroke-width="0.9" opacity="1" /><path d="M1152 44 q-10.9 2.2 -4.4 -10.9 q1.1 -9.8 7.6 -10.9" stroke-width="0.9" opacity="1" /><path d="M1248 20 q10.9 -2.2 4.4 10.9 q-1.1 9.8 -7.6 10.9" stroke-width="0.9" opacity="1" /><path d="M1248 44 q10.9 2.2 4.4 -10.9 q-1.1 -9.8 -7.6 -10.9" stroke-width="0.9" opacity="1" /><polygon points="1296,10.2 1317.8,32 1296,53.8 1274.2,32" stroke-width="1.2"/><polygon points="1296,20 1308,32 1296,44 1284,32" stroke-width="0.8" opacity="0.8"/><circle cx="1296" cy="32" r="2.2" stroke-width="0.8"/><path d="M1248 20 q-10.9 -2.2 -4.4 10.9 q1.1 9.8 7.6 10.9" stroke-width="0.9" opacity="1" /><path d="M1248 44 q-10.9 2.2 -4.4 -10.9 q1.1 -9.8 7.6 -10.9" stroke-width="0.9" opacity="1" /><path d="M1344 20 q10.9 -2.2 4.4 10.9 q-1.1 9.8 -7.6 10.9" stroke-width="0.9" opacity="1" /><path d="M1344 44 q10.9 2.2 4.4 -10.9 q-1.1 -9.8 -7.6 -10.9" stroke-width="0.9" opacity="1" /><polygon points="1392,10.2 1413.8,32 1392,53.8 1370.2,32" stroke-width="1.2"/><polygon points="1392,20 1404,32 1392,44 1380,32" stroke-width="0.8" opacity="0.8"/><circle cx="1392" cy="32" r="2.2" stroke-width="0.8"/><path d="M1344 20 q-10.9 -2.2 -4.4 10.9 q1.1 9.8 7.6 10.9" stroke-width="0.9" opacity="1" /><path d="M1344 44 q-10.9 2.2 -4.4 -10.9 q1.1 -9.8 7.6 -10.9" stroke-width="0.9" opacity="1" /><path d="M1440 20 q10.9 -2.2 4.4 10.9 q-1.1 9.8 -7.6 10.9" stroke-width="0.9" opacity="1" /><path d="M1440 44 q10.9 2.2 4.4 -10.9 q-1.1 -9.8 -7.6 -10.9" stroke-width="0.9" opacity="1" /><polygon points="1488,10.2 1509.8,32 1488,53.8 1466.2,32" stroke-width="1.2"/><polygon points="1488,20 1500,32 1488,44 1476,32" stroke-width="0.8" opacity="0.8"/><circle cx="1488" cy="32" r="2.2" stroke-width="0.8"/><path d="M1440 20 q-10.9 -2.2 -4.4 10.9 q1.1 9.8 7.6 10.9" stroke-width="0.9" opacity="1" /><path d="M1440 44 q-10.9 2.2 -4.4 -10.9 q1.1 -9.8 7.6 -10.9" stroke-width="0.9" opacity="1" /><path d="M1536 20 q10.9 -2.2 4.4 10.9 q-1.1 9.8 -7.6 10.9" stroke-width="0.9" opacity="1" /><path d="M1536 44 q10.9 2.2 4.4 -10.9 q-1.1 -9.8 -7.6 -10.9" stroke-width="0.9" opacity="1" /><polygon points="1584,10.2 1605.8,32 1584,53.8 1562.2,32" stroke-width="1.2"/><polygon points="1584,20 1596,32 1584,44 1572,32" stroke-width="0.8" opacity="0.8"/><circle cx="1584" cy="32" r="2.2" stroke-width="0.8"/><path d="M1536 20 q-10.9 -2.2 -4.4 10.9 q1.1 9.8 7.6 10.9" stroke-width="0.9" opacity="1" /><path d="M1536 44 q-10.9 2.2 -4.4 -10.9 q1.1 -9.8 7.6 -10.9" stroke-width="0.9" opacity="1" /><path d="M1632 20 q10.9 -2.2 4.4 10.9 q-1.1 9.8 -7.6 10.9" stroke-width="0.9" opacity="1" /><path d="M1632 44 q10.9 2.2 4.4 -10.9 q-1.1 -9.8 -7.6 -10.9" stroke-width="0.9" opacity="1" /><polygon points="1680,10.2 1701.8,32 1680,53.8 1658.2,32" stroke-width="1.2"/><polygon points="1680,20 1692,32 1680,44 1668,32" stroke-width="0.8" opacity="0.8"/><circle cx="1680" cy="32" r="2.2" stroke-width="0.8"/><path d="M1632 20 q-10.9 -2.2 -4.4 10.9 q1.1 9.8 7.6 10.9" stroke-width="0.9" opacity="1" /><path d="M1632 44 q-10.9 2.2 -4.4 -10.9 q1.1 -9.8 7.6 -10.9" stroke-width="0.9" opacity="1" /><path d="M1728 20 q10.9 -2.2 4.4 10.9 q-1.1 9.8 -7.6 10.9" stroke-width="0.9" opacity="1" /><path d="M1728 44 q10.9 2.2 4.4 -10.9 q-1.1 -9.8 -7.6 -10.9" stroke-width="0.9" opacity="1" /></g>
<g transform="translate(800 586)"><clipPath id="ar-clip"><path d="M0 303.6 C90 290.4 180 257.4 243 198 C279 145.2 306 105.6 324 99 C342 97.3 369 145.2 423 181.5 C468 198 504 145.2 558 66 C585 26.4 594 8.2 612 6.6 C639 8.2 675 85.8 738 171.6 C810 250.8 864 290.4 900 310.2 L900 330 L0 330 Z"/></clipPath><path d="M0 303.6 C90 290.4 180 257.4 243 198 C279 145.2 306 105.6 324 99 C342 97.3 369 145.2 423 181.5 C468 198 504 145.2 558 66 C585 26.4 594 8.2 612 6.6 C639 8.2 675 85.8 738 171.6 C810 250.8 864 290.4 900 310.2 L900 330 L0 330 Z" fill="#f5ecda" stroke="none"/><path d="M0 303.6 C90 290.4 180 257.4 243 198 C279 145.2 306 105.6 324 99 C342 97.3 369 145.2 423 181.5 C468 198 504 145.2 558 66 C585 26.4 594 8.2 612 6.6 C639 8.2 675 85.8 738 171.6 C810 250.8 864 290.4 900 310.2" stroke-width="2" opacity="1" /><path d="M0 303.6 C90 290.4 180 257.4 243 198 C279 145.2 306 105.6 324 99 C342 97.3 369 145.2 423 181.5 C468 198 504 145.2 558 66 C585 26.4 594 8.2 612 6.6 C639 8.2 675 85.8 738 171.6 C810 250.8 864 290.4 900 310.2" stroke-width="0.8" opacity="0.5" transform="translate(2 3)"/><g clip-path="url(#ar-clip)"><polyline points="508.5,66.7 523.3,119.8 538.1,63.1 552.9,92.9 567.6,73.6 582.4,117.1 597.2,56.8 612,97.3 626.8,78.7 641.6,111.5 656.4,53.2 671.1,103.8 685.9,80.7 700.7,104.4 715.5,53" stroke-width="1.4"/><polyline points="261,141.9 273.6,179.4 286.2,139.4 298.8,160.5 311.4,146.8 324,177.5 336.6,135 349.2,163.5 361.8,150.4 374.4,173.5 387,132.4" stroke-width="1.4"/></g><g clip-path="url(#ar-clip)" opacity="0.5"><path d="M-330 330 L-125.4 0 M-315 330 L-110.4 0 M-300 330 L-95.4 0 M-285 330 L-80.4 0 M-270 330 L-65.4 0 M-255 330 L-50.4 0 M-240 330 L-35.4 0 M-225 330 L-20.4 0 M-210 330 L-5.4 0 M-195 330 L9.6 0 M-180 330 L24.6 0 M-165 330 L39.6 0 M-150 330 L54.6 0 M-135 330 L69.6 0 M-120 330 L84.6 0 M-105 330 L99.6 0 M-90 330 L114.6 0 M-75 330 L129.6 0 M-60 330 L144.6 0 M-45 330 L159.6 0 M-30 330 L174.6 0 M-15 330 L189.6 0 M0 330 L204.6 0 M15 330 L219.6 0 M30 330 L234.6 0 M45 330 L249.6 0 M60 330 L264.6 0 M75 330 L279.6 0 M90 330 L294.6 0 M105 330 L309.6 0 M120 330 L324.6 0 M135 330 L339.6 0 M150 330 L354.6 0 M165 330 L369.6 0 M180 330 L384.6 0 M195 330 L399.6 0 M210 330 L414.6 0 M225 330 L429.6 0 M240 330 L444.6 0 M255 330 L459.6 0 M270 330 L474.6 0 M285 330 L489.6 0 M300 330 L504.6 0 M315 330 L519.6 0 M330 330 L534.6 0 M345 330 L549.6 0 M360 330 L564.6 0 M375 330 L579.6 0 M390 330 L594.6 0 M405 330 L609.6 0 M420 330 L624.6 0 M435 330 L639.6 0 M450 330 L654.6 0 M465 330 L669.6 0 M480 330 L684.6 0 M495 330 L699.6 0 M510 330 L714.6 0 M525 330 L729.6 0 M540 330 L744.6 0 M555 330 L759.6 0 M570 330 L774.6 0 M585 330 L789.6 0 M600 330 L804.6 0 M615 330 L819.6 0 M630 330 L834.6 0 M645 330 L849.6 0 M660 330 L864.6 0 M675 330 L879.6 0 M690 330 L894.6 0 M705 330 L909.6 0 M720 330 L924.6 0 M735 330 L939.6 0 M750 330 L954.6 0 M765 330 L969.6 0 M780 330 L984.6 0 M795 330 L999.6 0 M810 330 L1014.6 0 M825 330 L1029.6 0 M840 330 L1044.6 0 M855 330 L1059.6 0 M870 330 L1074.6 0 M885 330 L1089.6 0 M900 330 L1104.6 0 M915 330 L1119.6 0 M930 330 L1134.6 0 M945 330 L1149.6 0 M960 330 L1164.6 0 M975 330 L1179.6 0 M990 330 L1194.6 0 M1005 330 L1209.6 0 M1020 330 L1224.6 0 M1035 330 L1239.6 0 M1050 330 L1254.6 0 M1065 330 L1269.6 0 M1080 330 L1284.6 0 M1095 330 L1299.6 0 M1110 330 L1314.6 0 M1125 330 L1329.6 0 M1140 330 L1344.6 0 M1155 330 L1359.6 0 M1170 330 L1374.6 0 M1185 330 L1389.6 0 M1200 330 L1404.6 0 M1215 330 L1419.6 0" stroke-width="0.7" opacity="1" /></g><path d="M540 85.8 Q526.5 145.2 495 204.6" stroke-width="0.9" opacity="0.8" /><path d="M666 99 Q702 151.8 720 204.6" stroke-width="0.9" opacity="0.8" /><path d="M306 118.8 Q297 168.3 270 217.8" stroke-width="0.9" opacity="0.8" /><path d="M360 138.6 Q391.5 165 405 191.4" stroke-width="0.9" opacity="0.8" /></g>
<g transform="translate(0 922)"><path d="M0 0 L1600 0 M0 64 L1600 64" stroke-width="1.4" opacity="1" /><path d="M0 9 L1600 9 M0 55 L1600 55" stroke-width="0.7" opacity="0.8" /><polygon points="48,10.2 69.8,32 48,53.8 26.2,32" stroke-width="1.2"/><polygon points="48,20 60,32 48,44 36,32" stroke-width="0.8" opacity="0.8"/><circle cx="48" cy="32" r="2.2" stroke-width="0.8"/><path d="M0 20 q-10.9 -2.2 -4.4 10.9 q1.1 9.8 7.6 10.9" stroke-width="0.9" opacity="1" /><path d="M0 44 q-10.9 2.2 -4.4 -10.9 q1.1 -9.8 7.6 -10.9" stroke-width="0.9" opacity="1" /><path d="M96 20 q10.9 -2.2 4.4 10.9 q-1.1 9.8 -7.6 10.9" stroke-width="0.9" opacity="1" /><path d="M96 44 q10.9 2.2 4.4 -10.9 q-1.1 -9.8 -7.6 -10.9" stroke-width="0.9" opacity="1" /><polygon points="144,10.2 165.8,32 144,53.8 122.2,32" stroke-width="1.2"/><polygon points="144,20 156,32 144,44 132,32" stroke-width="0.8" opacity="0.8"/><circle cx="144" cy="32" r="2.2" stroke-width="0.8"/><path d="M96 20 q-10.9 -2.2 -4.4 10.9 q1.1 9.8 7.6 10.9" stroke-width="0.9" opacity="1" /><path d="M96 44 q-10.9 2.2 -4.4 -10.9 q1.1 -9.8 7.6 -10.9" stroke-width="0.9" opacity="1" /><path d="M192 20 q10.9 -2.2 4.4 10.9 q-1.1 9.8 -7.6 10.9" stroke-width="0.9" opacity="1" /><path d="M192 44 q10.9 2.2 4.4 -10.9 q-1.1 -9.8 -7.6 -10.9" stroke-width="0.9" opacity="1" /><polygon points="240,10.2 261.8,32 240,53.8 218.2,32" stroke-width="1.2"/><polygon points="240,20 252,32 240,44 228,32" stroke-width="0.8" opacity="0.8"/><circle cx="240" cy="32" r="2.2" stroke-width="0.8"/><path d="M192 20 q-10.9 -2.2 -4.4 10.9 q1.1 9.8 7.6 10.9" stroke-width="0.9" opacity="1" /><path d="M192 44 q-10.9 2.2 -4.4 -10.9 q1.1 -9.8 7.6 -10.9" stroke-width="0.9" opacity="1" /><path d="M288 20 q10.9 -2.2 4.4 10.9 q-1.1 9.8 -7.6 10.9" stroke-width="0.9" opacity="1" /><path d="M288 44 q10.9 2.2 4.4 -10.9 q-1.1 -9.8 -7.6 -10.9" stroke-width="0.9" opacity="1" /><polygon points="336,10.2 357.8,32 336,53.8 314.2,32" stroke-width="1.2"/><polygon points="336,20 348,32 336,44 324,32" stroke-width="0.8" opacity="0.8"/><circle cx="336" cy="32" r="2.2" stroke-width="0.8"/><path d="M288 20 q-10.9 -2.2 -4.4 10.9 q1.1 9.8 7.6 10.9" stroke-width="0.9" opacity="1" /><path d="M288 44 q-10.9 2.2 -4.4 -10.9 q1.1 -9.8 7.6 -10.9" stroke-width="0.9" opacity="1" /><path d="M384 20 q10.9 -2.2 4.4 10.9 q-1.1 9.8 -7.6 10.9" stroke-width="0.9" opacity="1" /><path d="M384 44 q10.9 2.2 4.4 -10.9 q-1.1 -9.8 -7.6 -10.9" stroke-width="0.9" opacity="1" /><polygon points="432,10.2 453.8,32 432,53.8 410.2,32" stroke-width="1.2"/><polygon points="432,20 444,32 432,44 420,32" stroke-width="0.8" opacity="0.8"/><circle cx="432" cy="32" r="2.2" stroke-width="0.8"/><path d="M384 20 q-10.9 -2.2 -4.4 10.9 q1.1 9.8 7.6 10.9" stroke-width="0.9" opacity="1" /><path d="M384 44 q-10.9 2.2 -4.4 -10.9 q1.1 -9.8 7.6 -10.9" stroke-width="0.9" opacity="1" /><path d="M480 20 q10.9 -2.2 4.4 10.9 q-1.1 9.8 -7.6 10.9" stroke-width="0.9" opacity="1" /><path d="M480 44 q10.9 2.2 4.4 -10.9 q-1.1 -9.8 -7.6 -10.9" stroke-width="0.9" opacity="1" /><polygon points="528,10.2 549.8,32 528,53.8 506.2,32" stroke-width="1.2"/><polygon points="528,20 540,32 528,44 516,32" stroke-width="0.8" opacity="0.8"/><circle cx="528" cy="32" r="2.2" stroke-width="0.8"/><path d="M480 20 q-10.9 -2.2 -4.4 10.9 q1.1 9.8 7.6 10.9" stroke-width="0.9" opacity="1" /><path d="M480 44 q-10.9 2.2 -4.4 -10.9 q1.1 -9.8 7.6 -10.9" stroke-width="0.9" opacity="1" /><path d="M576 20 q10.9 -2.2 4.4 10.9 q-1.1 9.8 -7.6 10.9" stroke-width="0.9" opacity="1" /><path d="M576 44 q10.9 2.2 4.4 -10.9 q-1.1 -9.8 -7.6 -10.9" stroke-width="0.9" opacity="1" /><polygon points="624,10.2 645.8,32 624,53.8 602.2,32" stroke-width="1.2"/><polygon points="624,20 636,32 624,44 612,32" stroke-width="0.8" opacity="0.8"/><circle cx="624" cy="32" r="2.2" stroke-width="0.8"/><path d="M576 20 q-10.9 -2.2 -4.4 10.9 q1.1 9.8 7.6 10.9" stroke-width="0.9" opacity="1" /><path d="M576 44 q-10.9 2.2 -4.4 -10.9 q1.1 -9.8 7.6 -10.9" stroke-width="0.9" opacity="1" /><path d="M672 20 q10.9 -2.2 4.4 10.9 q-1.1 9.8 -7.6 10.9" stroke-width="0.9" opacity="1" /><path d="M672 44 q10.9 2.2 4.4 -10.9 q-1.1 -9.8 -7.6 -10.9" stroke-width="0.9" opacity="1" /><polygon points="720,10.2 741.8,32 720,53.8 698.2,32" stroke-width="1.2"/><polygon points="720,20 732,32 720,44 708,32" stroke-width="0.8" opacity="0.8"/><circle cx="720" cy="32" r="2.2" stroke-width="0.8"/><path d="M672 20 q-10.9 -2.2 -4.4 10.9 q1.1 9.8 7.6 10.9" stroke-width="0.9" opacity="1" /><path d="M672 44 q-10.9 2.2 -4.4 -10.9 q1.1 -9.8 7.6 -10.9" stroke-width="0.9" opacity="1" /><path d="M768 20 q10.9 -2.2 4.4 10.9 q-1.1 9.8 -7.6 10.9" stroke-width="0.9" opacity="1" /><path d="M768 44 q10.9 2.2 4.4 -10.9 q-1.1 -9.8 -7.6 -10.9" stroke-width="0.9" opacity="1" /><polygon points="816,10.2 837.8,32 816,53.8 794.2,32" stroke-width="1.2"/><polygon points="816,20 828,32 816,44 804,32" stroke-width="0.8" opacity="0.8"/><circle cx="816" cy="32" r="2.2" stroke-width="0.8"/><path d="M768 20 q-10.9 -2.2 -4.4 10.9 q1.1 9.8 7.6 10.9" stroke-width="0.9" opacity="1" /><path d="M768 44 q-10.9 2.2 -4.4 -10.9 q1.1 -9.8 7.6 -10.9" stroke-width="0.9" opacity="1" /><path d="M864 20 q10.9 -2.2 4.4 10.9 q-1.1 9.8 -7.6 10.9" stroke-width="0.9" opacity="1" /><path d="M864 44 q10.9 2.2 4.4 -10.9 q-1.1 -9.8 -7.6 -10.9" stroke-width="0.9" opacity="1" /><polygon points="912,10.2 933.8,32 912,53.8 890.2,32" stroke-width="1.2"/><polygon points="912,20 924,32 912,44 900,32" stroke-width="0.8" opacity="0.8"/><circle cx="912" cy="32" r="2.2" stroke-width="0.8"/><path d="M864 20 q-10.9 -2.2 -4.4 10.9 q1.1 9.8 7.6 10.9" stroke-width="0.9" opacity="1" /><path d="M864 44 q-10.9 2.2 -4.4 -10.9 q1.1 -9.8 7.6 -10.9" stroke-width="0.9" opacity="1" /><path d="M960 20 q10.9 -2.2 4.4 10.9 q-1.1 9.8 -7.6 10.9" stroke-width="0.9" opacity="1" /><path d="M960 44 q10.9 2.2 4.4 -10.9 q-1.1 -9.8 -7.6 -10.9" stroke-width="0.9" opacity="1" /><polygon points="1008,10.2 1029.8,32 1008,53.8 986.2,32" stroke-width="1.2"/><polygon points="1008,20 1020,32 1008,44 996,32" stroke-width="0.8" opacity="0.8"/><circle cx="1008" cy="32" r="2.2" stroke-width="0.8"/><path d="M960 20 q-10.9 -2.2 -4.4 10.9 q1.1 9.8 7.6 10.9" stroke-width="0.9" opacity="1" /><path d="M960 44 q-10.9 2.2 -4.4 -10.9 q1.1 -9.8 7.6 -10.9" stroke-width="0.9" opacity="1" /><path d="M1056 20 q10.9 -2.2 4.4 10.9 q-1.1 9.8 -7.6 10.9" stroke-width="0.9" opacity="1" /><path d="M1056 44 q10.9 2.2 4.4 -10.9 q-1.1 -9.8 -7.6 -10.9" stroke-width="0.9" opacity="1" /><polygon points="1104,10.2 1125.8,32 1104,53.8 1082.2,32" stroke-width="1.2"/><polygon points="1104,20 1116,32 1104,44 1092,32" stroke-width="0.8" opacity="0.8"/><circle cx="1104" cy="32" r="2.2" stroke-width="0.8"/><path d="M1056 20 q-10.9 -2.2 -4.4 10.9 q1.1 9.8 7.6 10.9" stroke-width="0.9" opacity="1" /><path d="M1056 44 q-10.9 2.2 -4.4 -10.9 q1.1 -9.8 7.6 -10.9" stroke-width="0.9" opacity="1" /><path d="M1152 20 q10.9 -2.2 4.4 10.9 q-1.1 9.8 -7.6 10.9" stroke-width="0.9" opacity="1" /><path d="M1152 44 q10.9 2.2 4.4 -10.9 q-1.1 -9.8 -7.6 -10.9" stroke-width="0.9" opacity="1" /><polygon points="1200,10.2 1221.8,32 1200,53.8 1178.2,32" stroke-width="1.2"/><polygon points="1200,20 1212,32 1200,44 1188,32" stroke-width="0.8" opacity="0.8"/><circle cx="1200" cy="32" r="2.2" stroke-width="0.8"/><path d="M1152 20 q-10.9 -2.2 -4.4 10.9 q1.1 9.8 7.6 10.9" stroke-width="0.9" opacity="1" /><path d="M1152 44 q-10.9 2.2 -4.4 -10.9 q1.1 -9.8 7.6 -10.9" stroke-width="0.9" opacity="1" /><path d="M1248 20 q10.9 -2.2 4.4 10.9 q-1.1 9.8 -7.6 10.9" stroke-width="0.9" opacity="1" /><path d="M1248 44 q10.9 2.2 4.4 -10.9 q-1.1 -9.8 -7.6 -10.9" stroke-width="0.9" opacity="1" /><polygon points="1296,10.2 1317.8,32 1296,53.8 1274.2,32" stroke-width="1.2"/><polygon points="1296,20 1308,32 1296,44 1284,32" stroke-width="0.8" opacity="0.8"/><circle cx="1296" cy="32" r="2.2" stroke-width="0.8"/><path d="M1248 20 q-10.9 -2.2 -4.4 10.9 q1.1 9.8 7.6 10.9" stroke-width="0.9" opacity="1" /><path d="M1248 44 q-10.9 2.2 -4.4 -10.9 q1.1 -9.8 7.6 -10.9" stroke-width="0.9" opacity="1" /><path d="M1344 20 q10.9 -2.2 4.4 10.9 q-1.1 9.8 -7.6 10.9" stroke-width="0.9" opacity="1" /><path d="M1344 44 q10.9 2.2 4.4 -10.9 q-1.1 -9.8 -7.6 -10.9" stroke-width="0.9" opacity="1" /><polygon points="1392,10.2 1413.8,32 1392,53.8 1370.2,32" stroke-width="1.2"/><polygon points="1392,20 1404,32 1392,44 1380,32" stroke-width="0.8" opacity="0.8"/><circle cx="1392" cy="32" r="2.2" stroke-width="0.8"/><path d="M1344 20 q-10.9 -2.2 -4.4 10.9 q1.1 9.8 7.6 10.9" stroke-width="0.9" opacity="1" /><path d="M1344 44 q-10.9 2.2 -4.4 -10.9 q1.1 -9.8 7.6 -10.9" stroke-width="0.9" opacity="1" /><path d="M1440 20 q10.9 -2.2 4.4 10.9 q-1.1 9.8 -7.6 10.9" stroke-width="0.9" opacity="1" /><path d="M1440 44 q10.9 2.2 4.4 -10.9 q-1.1 -9.8 -7.6 -10.9" stroke-width="0.9" opacity="1" /><polygon points="1488,10.2 1509.8,32 1488,53.8 1466.2,32" stroke-width="1.2"/><polygon points="1488,20 1500,32 1488,44 1476,32" stroke-width="0.8" opacity="0.8"/><circle cx="1488" cy="32" r="2.2" stroke-width="0.8"/><path d="M1440 20 q-10.9 -2.2 -4.4 10.9 q1.1 9.8 7.6 10.9" stroke-width="0.9" opacity="1" /><path d="M1440 44 q-10.9 2.2 -4.4 -10.9 q1.1 -9.8 7.6 -10.9" stroke-width="0.9" opacity="1" /><path d="M1536 20 q10.9 -2.2 4.4 10.9 q-1.1 9.8 -7.6 10.9" stroke-width="0.9" opacity="1" /><path d="M1536 44 q10.9 2.2 4.4 -10.9 q-1.1 -9.8 -7.6 -10.9" stroke-width="0.9" opacity="1" /><polygon points="1584,10.2 1605.8,32 1584,53.8 1562.2,32" stroke-width="1.2"/><polygon points="1584,20 1596,32 1584,44 1572,32" stroke-width="0.8" opacity="0.8"/><circle cx="1584" cy="32" r="2.2" stroke-width="0.8"/><path d="M1536 20 q-10.9 -2.2 -4.4 10.9 q1.1 9.8 7.6 10.9" stroke-width="0.9" opacity="1" /><path d="M1536 44 q-10.9 2.2 -4.4 -10.9 q1.1 -9.8 7.6 -10.9" stroke-width="0.9" opacity="1" /><path d="M1632 20 q10.9 -2.2 4.4 10.9 q-1.1 9.8 -7.6 10.9" stroke-width="0.9" opacity="1" /><path d="M1632 44 q10.9 2.2 4.4 -10.9 q-1.1 -9.8 -7.6 -10.9" stroke-width="0.9" opacity="1" /><polygon points="1680,10.2 1701.8,32 1680,53.8 1658.2,32" stroke-width="1.2"/><polygon points="1680,20 1692,32 1680,44 1668,32" stroke-width="0.8" opacity="0.8"/><circle cx="1680" cy="32" r="2.2" stroke-width="0.8"/><path d="M1632 20 q-10.9 -2.2 -4.4 10.9 q1.1 9.8 7.6 10.9" stroke-width="0.9" opacity="1" /><path d="M1632 44 q-10.9 2.2 -4.4 -10.9 q1.1 -9.8 7.6 -10.9" stroke-width="0.9" opacity="1" /><path d="M1728 20 q10.9 -2.2 4.4 10.9 q-1.1 9.8 -7.6 10.9" stroke-width="0.9" opacity="1" /><path d="M1728 44 q10.9 2.2 4.4 -10.9 q-1.1 -9.8 -7.6 -10.9" stroke-width="0.9" opacity="1" /></g>
<g transform="translate(620 916)"><path d="M-75 0 L-75 -325 A75 75 0 0 1 75 -325 L75 0 Z" fill="#f5ecda" stroke="none"/><path d="M-75 0 L-75 -325 A75 75 0 0 1 75 -325 L75 0 Z" stroke-width="1.8" opacity="1" /><path d="M-64.5 -12 L-64.5 -325 A64.5 64.5 0 0 1 64.5 -325 L64.5 -12 Z" stroke-width="0.9" opacity="0.8" /><g transform="translate(0 -310)"><g transform="translate(0 0)"><polyline points="-8.6,-8.6 -8.6,-27 -16.2,-33.5 -9.7,-48.1 0,-52.9 9.7,-48.1 16.2,-33.5 8.6,-27 8.6,-8.6" stroke-width="1.3"/></g><g transform="translate(0 0)"><circle cx="0" cy="-42.4" r="3.9" stroke-width="0.9"/></g><g transform="translate(0 0) rotate(90)"><polyline points="-8.6,-8.6 -8.6,-27 -16.2,-33.5 -9.7,-48.1 0,-52.9 9.7,-48.1 16.2,-33.5 8.6,-27 8.6,-8.6" stroke-width="1.3"/></g><g transform="translate(0 0) rotate(90)"><circle cx="0" cy="-42.4" r="3.9" stroke-width="0.9"/></g><g transform="translate(0 0) rotate(180)"><polyline points="-8.6,-8.6 -8.6,-27 -16.2,-33.5 -9.7,-48.1 0,-52.9 9.7,-48.1 16.2,-33.5 8.6,-27 8.6,-8.6" stroke-width="1.3"/></g><g transform="translate(0 0) rotate(180)"><circle cx="0" cy="-42.4" r="3.9" stroke-width="0.9"/></g><g transform="translate(0 0) rotate(270)"><polyline points="-8.6,-8.6 -8.6,-27 -16.2,-33.5 -9.7,-48.1 0,-52.9 9.7,-48.1 16.2,-33.5 8.6,-27 8.6,-8.6" stroke-width="1.3"/></g><g transform="translate(0 0) rotate(270)"><circle cx="0" cy="-42.4" r="3.9" stroke-width="0.9"/></g><circle cx="0" cy="0" r="11.9" stroke-width="1.2"/><path d="M3.2 0 Q11.2 -4.1 10.8 0 Q9 3.8 3.2 0" stroke-width="0.7" opacity="0.8" /><path d="M2.3 2.3 Q10.8 5 7.6 7.6 Q3.7 9 2.3 2.3" stroke-width="0.7" opacity="0.8" /><path d="M0 3.2 Q4.1 11.2 0 10.8 Q-3.8 9 0 3.2" stroke-width="0.7" opacity="0.8" /><path d="M-2.3 2.3 Q-5 10.8 -7.6 7.6 Q-9 3.7 -2.3 2.3" stroke-width="0.7" opacity="0.8" /><path d="M-3.2 0 Q-11.2 4.1 -10.8 0 Q-9 -3.8 -3.2 0" stroke-width="0.7" opacity="0.8" /><path d="M-2.3 -2.3 Q-10.8 -5 -7.6 -7.6 Q-3.7 -9 -2.3 -2.3" stroke-width="0.7" opacity="0.8" /><path d="M-0 -3.2 Q-4.1 -11.2 -0 -10.8 Q3.8 -9 -0 -3.2" stroke-width="0.7" opacity="0.8" /><path d="M2.3 -2.3 Q5 -10.8 7.6 -7.6 Q9 -3.7 2.3 -2.3" stroke-width="0.7" opacity="0.8" /><polyline points="-38.9,-27 -37.7,-31.4 -35,-35 -31.2,-37.2 -27,-37.7 -23,-36.6 -19.9,-34.1 -17.9,-30.8 -17.5,-27 -18.5,-23.5 -20.7,-20.7 -23.7,-19 -27,-18.7 -30.1,-19.6 -32.5,-21.5 -33.9,-24.2 -34.1,-27 -33.3,-29.6 -31.6,-31.6 -29.4,-32.8 -27,-33 -24.8,-32.2 -23.2,-30.8 -22.3,-28.9 -22.2,-27 -22.9,-25.3 -24.1,-24.1 -25.5,-23.4 -27,-23.4 -28.3,-24 -29.1,-24.9 -29.5,-26 -29.4,-27 -28.9,-27.8 -28.3,-28.3 -27.6,-28.4 -27,-28.2 -26.7,-27.8 -26.6,-27.4 -26.7,-27.1 -27,-27" stroke-width="1"/><polyline points="-38.9,27 -37.7,31.4 -35,35 -31.2,37.2 -27,37.7 -23,36.6 -19.9,34.1 -17.9,30.8 -17.5,27 -18.5,23.5 -20.7,20.7 -23.7,19 -27,18.7 -30.1,19.6 -32.5,21.5 -33.9,24.2 -34.1,27 -33.3,29.6 -31.6,31.6 -29.4,32.8 -27,33 -24.8,32.2 -23.2,30.8 -22.3,28.9 -22.2,27 -22.9,25.3 -24.1,24.1 -25.5,23.4 -27,23.4 -28.3,24 -29.1,24.9 -29.5,26 -29.4,27 -28.9,27.8 -28.3,28.3 -27.6,28.4 -27,28.2 -26.7,27.8 -26.6,27.4 -26.7,27.1 -27,27" stroke-width="1"/><polyline points="38.9,-27 37.7,-31.4 35,-35 31.2,-37.2 27,-37.7 23,-36.6 19.9,-34.1 17.9,-30.8 17.5,-27 18.5,-23.5 20.7,-20.7 23.7,-19 27,-18.7 30.1,-19.6 32.5,-21.5 33.9,-24.2 34.1,-27 33.3,-29.6 31.6,-31.6 29.4,-32.8 27,-33 24.8,-32.2 23.2,-30.8 22.3,-28.9 22.2,-27 22.9,-25.3 24.1,-24.1 25.5,-23.4 27,-23.4 28.3,-24 29.1,-24.9 29.5,-26 29.4,-27 28.9,-27.8 28.3,-28.3 27.6,-28.4 27,-28.2 26.7,-27.8 26.6,-27.4 26.7,-27.1 27,-27" stroke-width="1"/><polyline points="38.9,27 37.7,31.4 35,35 31.2,37.2 27,37.7 23,36.6 19.9,34.1 17.9,30.8 17.5,27 18.5,23.5 20.7,20.7 23.7,19 27,18.7 30.1,19.6 32.5,21.5 33.9,24.2 34.1,27 33.3,29.6 31.6,31.6 29.4,32.8 27,33 24.8,32.2 23.2,30.8 22.3,28.9 22.2,27 22.9,25.3 24.1,24.1 25.5,23.4 27,23.4 28.3,24 29.1,24.9 29.5,26 29.4,27 28.9,27.8 28.3,28.3 27.6,28.4 27,28.2 26.7,27.8 26.6,27.4 26.7,27.1 27,27" stroke-width="1"/></g><path d="M-59.2 -232 L-54.3 -224.6 L-49.4 -221.5 L-44.4 -224.6 L-39.5 -232 L-34.6 -239.4 L-29.6 -242.5 L-24.7 -239.4 L-19.8 -232 L-14.8 -224.6 L-9.9 -221.5 L-4.9 -224.6 L0 -232 L4.9 -239.4 L9.9 -242.5 L14.8 -239.4 L19.8 -232 L24.7 -224.6 L29.6 -221.5 L34.6 -224.6 L39.5 -232 L44.4 -239.4 L49.4 -242.5 L54.3 -239.4 L59.2 -232" stroke-width="0.9" opacity="1" /><path d="M-59.2 -232 L-54.3 -239.4 L-49.4 -242.5 L-44.4 -239.4 L-39.5 -232 L-34.6 -224.6 L-29.6 -221.5 L-24.7 -224.6 L-19.8 -232 L-14.8 -239.4 L-9.9 -242.5 L-4.9 -239.4 L0 -232 L4.9 -224.6 L9.9 -221.5 L14.8 -224.6 L19.8 -232 L24.7 -239.4 L29.6 -242.5 L34.6 -239.4 L39.5 -232 L44.4 -224.6 L49.4 -221.5 L54.3 -224.6 L59.2 -232" stroke-width="0.9" opacity="0.9" /><circle cx="-49.4" cy="-232" r="2.7" stroke-width="0.8"/><circle cx="-29.6" cy="-232" r="2.7" stroke-width="0.8"/><circle cx="-9.9" cy="-232" r="2.7" stroke-width="0.8"/><circle cx="9.9" cy="-232" r="2.7" stroke-width="0.8"/><circle cx="29.6" cy="-232" r="2.7" stroke-width="0.8"/><circle cx="49.4" cy="-232" r="2.7" stroke-width="0.8"/><path d="M-59.2 -193 L-54.3 -185.6 L-49.4 -182.5 L-44.4 -185.6 L-39.5 -193 L-34.6 -200.4 L-29.6 -203.5 L-24.7 -200.4 L-19.8 -193 L-14.8 -185.6 L-9.9 -182.5 L-4.9 -185.6 L0 -193 L4.9 -200.4 L9.9 -203.5 L14.8 -200.4 L19.8 -193 L24.7 -185.6 L29.6 -182.5 L34.6 -185.6 L39.5 -193 L44.4 -200.4 L49.4 -203.5 L54.3 -200.4 L59.2 -193" stroke-width="0.9" opacity="1" /><path d="M-59.2 -193 L-54.3 -200.4 L-49.4 -203.5 L-44.4 -200.4 L-39.5 -193 L-34.6 -185.6 L-29.6 -182.5 L-24.7 -185.6 L-19.8 -193 L-14.8 -200.4 L-9.9 -203.5 L-4.9 -200.4 L0 -193 L4.9 -185.6 L9.9 -182.5 L14.8 -185.6 L19.8 -193 L24.7 -200.4 L29.6 -203.5 L34.6 -200.4 L39.5 -193 L44.4 -185.6 L49.4 -182.5 L54.3 -185.6 L59.2 -193" stroke-width="0.9" opacity="0.9" /><circle cx="-49.4" cy="-193" r="2.7" stroke-width="0.8"/><circle cx="-29.6" cy="-193" r="2.7" stroke-width="0.8"/><circle cx="-9.9" cy="-193" r="2.7" stroke-width="0.8"/><circle cx="9.9" cy="-193" r="2.7" stroke-width="0.8"/><circle cx="29.6" cy="-193" r="2.7" stroke-width="0.8"/><circle cx="49.4" cy="-193" r="2.7" stroke-width="0.8"/><path d="M-59.2 -154 L-54.3 -146.6 L-49.4 -143.5 L-44.4 -146.6 L-39.5 -154 L-34.6 -161.4 L-29.6 -164.5 L-24.7 -161.4 L-19.8 -154 L-14.8 -146.6 L-9.9 -143.5 L-4.9 -146.6 L0 -154 L4.9 -161.4 L9.9 -164.5 L14.8 -161.4 L19.8 -154 L24.7 -146.6 L29.6 -143.5 L34.6 -146.6 L39.5 -154 L44.4 -161.4 L49.4 -164.5 L54.3 -161.4 L59.2 -154" stroke-width="0.9" opacity="1" /><path d="M-59.2 -154 L-54.3 -161.4 L-49.4 -164.5 L-44.4 -161.4 L-39.5 -154 L-34.6 -146.6 L-29.6 -143.5 L-24.7 -146.6 L-19.8 -154 L-14.8 -161.4 L-9.9 -164.5 L-4.9 -161.4 L0 -154 L4.9 -146.6 L9.9 -143.5 L14.8 -146.6 L19.8 -154 L24.7 -161.4 L29.6 -164.5 L34.6 -161.4 L39.5 -154 L44.4 -146.6 L49.4 -143.5 L54.3 -146.6 L59.2 -154" stroke-width="0.9" opacity="0.9" /><circle cx="-49.4" cy="-154" r="2.7" stroke-width="0.8"/><circle cx="-29.6" cy="-154" r="2.7" stroke-width="0.8"/><circle cx="-9.9" cy="-154" r="2.7" stroke-width="0.8"/><circle cx="9.9" cy="-154" r="2.7" stroke-width="0.8"/><circle cx="29.6" cy="-154" r="2.7" stroke-width="0.8"/><circle cx="49.4" cy="-154" r="2.7" stroke-width="0.8"/><path d="M-93 0 L-93 9 L93 9 L93 0" stroke-width="1.4" opacity="1" /></g>
<g transform="translate(630 215)"><circle cx="0" cy="0" r="80" stroke-width="1.6"/><circle cx="0" cy="0" r="68.8" stroke-width="0.8" opacity="0.7"/><circle cx="0" cy="0" r="13.6" stroke-width="1.2"/><circle cx="0" cy="0" r="24" stroke-width="0.8" opacity="0.7"/><g transform="translate(0 0)"><path d="M13.6 0 C33.6 -1.6 59.2 -4.8 67.2 -30.4" stroke-width="1.3" opacity="1" /><path d="M67.2 -30.4 q4.8 -11.2 -6.4 -14.4" stroke-width="1" opacity="1" /></g><g transform="translate(0 0) rotate(45)"><path d="M13.6 0 C33.6 -1.6 59.2 -4.8 67.2 -30.4" stroke-width="1.3" opacity="1" /><path d="M67.2 -30.4 q4.8 -11.2 -6.4 -14.4" stroke-width="1" opacity="1" /></g><g transform="translate(0 0) rotate(90)"><path d="M13.6 0 C33.6 -1.6 59.2 -4.8 67.2 -30.4" stroke-width="1.3" opacity="1" /><path d="M67.2 -30.4 q4.8 -11.2 -6.4 -14.4" stroke-width="1" opacity="1" /></g><g transform="translate(0 0) rotate(135)"><path d="M13.6 0 C33.6 -1.6 59.2 -4.8 67.2 -30.4" stroke-width="1.3" opacity="1" /><path d="M67.2 -30.4 q4.8 -11.2 -6.4 -14.4" stroke-width="1" opacity="1" /></g><g transform="translate(0 0) rotate(180)"><path d="M13.6 0 C33.6 -1.6 59.2 -4.8 67.2 -30.4" stroke-width="1.3" opacity="1" /><path d="M67.2 -30.4 q4.8 -11.2 -6.4 -14.4" stroke-width="1" opacity="1" /></g><g transform="translate(0 0) rotate(225)"><path d="M13.6 0 C33.6 -1.6 59.2 -4.8 67.2 -30.4" stroke-width="1.3" opacity="1" /><path d="M67.2 -30.4 q4.8 -11.2 -6.4 -14.4" stroke-width="1" opacity="1" /></g><g transform="translate(0 0) rotate(270)"><path d="M13.6 0 C33.6 -1.6 59.2 -4.8 67.2 -30.4" stroke-width="1.3" opacity="1" /><path d="M67.2 -30.4 q4.8 -11.2 -6.4 -14.4" stroke-width="1" opacity="1" /></g><g transform="translate(0 0) rotate(315)"><path d="M13.6 0 C33.6 -1.6 59.2 -4.8 67.2 -30.4" stroke-width="1.3" opacity="1" /><path d="M67.2 -30.4 q4.8 -11.2 -6.4 -14.4" stroke-width="1" opacity="1" /></g></g>
<g transform="translate(630 418)"><polygon points="46,0 23.8,9.9 32.5,32.5 9.9,23.8 0,46 -9.9,23.8 -32.5,32.5 -23.8,9.9 -46,0 -23.8,-9.9 -32.5,-32.5 -9.9,-23.8 -0,-46 9.9,-23.8 32.5,-32.5 23.8,-9.9" stroke-width="1.4"/><polygon points="28,11.6 11.7,11.7 11.6,28 0,16.6 -11.6,28 -11.7,11.7 -28,11.6 -16.6,0 -28,-11.6 -11.7,-11.7 -11.6,-28 -0,-16.6 11.6,-28 11.7,-11.7 28,-11.6 16.6,-0" stroke-width="1.4"/><circle cx="0" cy="0" r="10.1" stroke-width="1.1"/><circle cx="0" cy="0" r="4.1" stroke-width="1"/><g transform="translate(46 0)"><path d="M0 0 q4.6 -0.9 5.5 -4.6 q-0.9 -4.6 -3.7 -2.8" stroke-width="1" opacity="1" /></g><circle cx="35.3" cy="14.6" r="1.6" stroke-width="0.9"/><g transform="translate(32.5 32.5) rotate(45)"><path d="M0 0 q4.6 -0.9 5.5 -4.6 q-0.9 -4.6 -3.7 -2.8" stroke-width="1" opacity="1" /></g><circle cx="14.6" cy="35.3" r="1.6" stroke-width="0.9"/><g transform="translate(0 46) rotate(90)"><path d="M0 0 q4.6 -0.9 5.5 -4.6 q-0.9 -4.6 -3.7 -2.8" stroke-width="1" opacity="1" /></g><circle cx="-14.6" cy="35.3" r="1.6" stroke-width="0.9"/><g transform="translate(-32.5 32.5) rotate(135)"><path d="M0 0 q4.6 -0.9 5.5 -4.6 q-0.9 -4.6 -3.7 -2.8" stroke-width="1" opacity="1" /></g><circle cx="-35.3" cy="14.6" r="1.6" stroke-width="0.9"/><g transform="translate(-46 0) rotate(180)"><path d="M0 0 q4.6 -0.9 5.5 -4.6 q-0.9 -4.6 -3.7 -2.8" stroke-width="1" opacity="1" /></g><circle cx="-35.3" cy="-14.6" r="1.6" stroke-width="0.9"/><g transform="translate(-32.5 -32.5) rotate(225)"><path d="M0 0 q4.6 -0.9 5.5 -4.6 q-0.9 -4.6 -3.7 -2.8" stroke-width="1" opacity="1" /></g><circle cx="-14.6" cy="-35.3" r="1.6" stroke-width="0.9"/><g transform="translate(-0 -46) rotate(270)"><path d="M0 0 q4.6 -0.9 5.5 -4.6 q-0.9 -4.6 -3.7 -2.8" stroke-width="1" opacity="1" /></g><circle cx="14.6" cy="-35.3" r="1.6" stroke-width="0.9"/><g transform="translate(32.5 -32.5) rotate(315)"><path d="M0 0 q4.6 -0.9 5.5 -4.6 q-0.9 -4.6 -3.7 -2.8" stroke-width="1" opacity="1" /></g><circle cx="35.3" cy="-14.6" r="1.6" stroke-width="0.9"/></g>
<g transform="translate(540 122)"><path d="M360.0 10.0Q230.0 10.0 160.0 -60.0Q90.0 -130.0 90.0 -254.0L90.0 -714.0L180.0 -714.0L180.0 -267.0Q180.0 -163.0 227.0 -114.5Q274.0 -66.0 363.0 -66.0Q450.0 -66.0 497.5 -114.5Q545.0 -163.0 545.0 -261.0L545.0 -714.0L635.0 -714.0L635.0 -252.0Q635.0 -236.0 634.0 -220.0Q644.0 -222.0 656.0 -222.0Q730.0 -222.0 769.5 -180.5Q809.0 -139.0 809.0 -46.0L809.0 -0.0L729.0 -0.0L729.0 -41.0Q729.0 -102.0 707.0 -127.0Q685.0 -152.0 643.0 -152.0Q630.0 -152.0 620.0 -151.0Q594.0 -74.0 527.5 -32.0Q461.0 10.0 360.0 10.0Z" transform="translate(-16.81 0) scale(0.04202)" stroke-width="26.2"/></g>
<g transform="translate(630 122)"><path d="M90.0 -0.0L90.0 -462.0Q90.0 -584.0 160.0 -654.0Q230.0 -724.0 360.0 -724.0Q494.0 -724.0 559.5 -653.0Q625.0 -582.0 625.0 -445.0L535.0 -445.0Q535.0 -549.0 491.5 -598.5Q448.0 -648.0 357.0 -648.0Q180.0 -648.0 180.0 -453.0L180.0 -341.0L628.0 -341.0L628.0 -265.0L180.0 -265.0L180.0 -0.0Z" transform="translate(-16.81 0) scale(0.04202)" stroke-width="26.2"/></g>
<g transform="translate(720 122)"><path d="M579.0 -0.0L489.0 -0.0L489.0 -265.0L336.0 -265.0Q202.0 -265.0 133.5 -324.5Q65.0 -384.0 65.0 -495.0Q65.0 -604.0 132.0 -664.0Q199.0 -724.0 322.0 -724.0Q446.0 -724.0 512.5 -653.0Q579.0 -582.0 579.0 -438.0L579.0 -341.0L736.0 -341.0L736.0 -265.0L579.0 -265.0ZM346.0 -341.0L489.0 -341.0L489.0 -436.0Q489.0 -540.0 446.5 -594.0Q404.0 -648.0 322.0 -648.0Q158.0 -648.0 158.0 -495.0Q158.0 -418.0 203.0 -379.5Q248.0 -341.0 346.0 -341.0Z" transform="translate(-16.81 0) scale(0.04202)" stroke-width="26.2"/></g>
<g transform="translate(1360 122)"><path d="M584.0 -0.0L494.0 -0.0L494.0 -453.0Q494.0 -554.0 449.5 -601.0Q405.0 -648.0 321.0 -648.0Q233.0 -648.0 191.0 -598.0Q149.0 -548.0 149.0 -445.0L59.0 -445.0Q59.0 -577.0 124.5 -650.5Q190.0 -724.0 323.0 -724.0Q448.0 -724.0 516.0 -655.5Q584.0 -587.0 584.0 -461.0L584.0 -341.0L732.0 -341.0L732.0 -265.0L584.0 -265.0Z" transform="translate(-16.81 0) scale(0.04202)" stroke-width="26.2"/></g>
<g transform="translate(1450 122)"><path d="M90.0 -714.0L180.0 -714.0L180.0 -604.0L628.0 -604.0L628.0 -528.0L180.0 -528.0L180.0 -261.0Q180.0 -66.0 357.0 -66.0Q448.0 -66.0 491.5 -115.5Q535.0 -165.0 535.0 -269.0L625.0 -269.0Q625.0 -132.0 559.5 -61.0Q494.0 10.0 360.0 10.0Q230.0 10.0 160.0 -60.0Q90.0 -130.0 90.0 -252.0Z" transform="translate(-16.81 0) scale(0.04202)" stroke-width="26.2"/></g>
<g transform="translate(1540 122)"><path d="M308.0 -287.0Q234.0 -287.0 179.5 -315.5Q125.0 -344.0 95.5 -394.0Q66.0 -444.0 66.0 -508.0Q66.0 -574.0 97.5 -624.0Q129.0 -674.0 186.5 -701.5Q244.0 -729.0 322.0 -729.0Q444.0 -729.0 508.0 -665.0Q572.0 -601.0 572.0 -498.0Q572.0 -487.0 570.0 -475.0Q564.0 -368.0 512.0 -291.0Q460.0 -214.0 383.0 -170.0L518.0 -170.0Q572.0 -170.0 601.0 -144.5Q630.0 -119.0 630.0 -58.0L630.0 -0.0L551.0 -0.0L551.0 -36.0Q551.0 -69.0 536.0 -81.5Q521.0 -94.0 488.0 -94.0L152.0 -94.0L152.0 -0.0L73.0 -0.0L73.0 -227.0L152.0 -227.0L152.0 -170.0L157.0 -170.0Q238.0 -170.0 314.0 -206.5Q390.0 -243.0 436.0 -313.0Q409.0 -301.0 376.5 -294.0Q344.0 -287.0 308.0 -287.0ZM318.0 -361.0Q402.0 -361.0 441.5 -401.5Q481.0 -442.0 481.0 -508.0Q481.0 -573.0 443.0 -614.0Q405.0 -655.0 321.0 -655.0Q241.0 -655.0 198.5 -616.5Q156.0 -578.0 156.0 -508.0Q156.0 -441.0 196.0 -401.0Q236.0 -361.0 318.0 -361.0Z" transform="translate(-16.81 0) scale(0.04202)" stroke-width="26.2"/></g>
<g transform="translate(1440 230)"><circle cx="0" cy="0" r="46" stroke-width="1.6"/><circle cx="0" cy="0" r="39.6" stroke-width="0.8" opacity="0.7"/><circle cx="0" cy="0" r="7.8" stroke-width="1.2"/><circle cx="0" cy="0" r="13.8" stroke-width="0.8" opacity="0.7"/><g transform="translate(0 0)"><path d="M7.8 0 C19.3 -0.9 34 -2.8 38.6 -17.5" stroke-width="1.3" opacity="1" /><path d="M38.6 -17.5 q2.8 -6.4 -3.7 -8.3" stroke-width="1" opacity="1" /></g><g transform="translate(0 0) rotate(45)"><path d="M7.8 0 C19.3 -0.9 34 -2.8 38.6 -17.5" stroke-width="1.3" opacity="1" /><path d="M38.6 -17.5 q2.8 -6.4 -3.7 -8.3" stroke-width="1" opacity="1" /></g><g transform="translate(0 0) rotate(90)"><path d="M7.8 0 C19.3 -0.9 34 -2.8 38.6 -17.5" stroke-width="1.3" opacity="1" /><path d="M38.6 -17.5 q2.8 -6.4 -3.7 -8.3" stroke-width="1" opacity="1" /></g><g transform="translate(0 0) rotate(135)"><path d="M7.8 0 C19.3 -0.9 34 -2.8 38.6 -17.5" stroke-width="1.3" opacity="1" /><path d="M38.6 -17.5 q2.8 -6.4 -3.7 -8.3" stroke-width="1" opacity="1" /></g><g transform="translate(0 0) rotate(180)"><path d="M7.8 0 C19.3 -0.9 34 -2.8 38.6 -17.5" stroke-width="1.3" opacity="1" /><path d="M38.6 -17.5 q2.8 -6.4 -3.7 -8.3" stroke-width="1" opacity="1" /></g><g transform="translate(0 0) rotate(225)"><path d="M7.8 0 C19.3 -0.9 34 -2.8 38.6 -17.5" stroke-width="1.3" opacity="1" /><path d="M38.6 -17.5 q2.8 -6.4 -3.7 -8.3" stroke-width="1" opacity="1" /></g><g transform="translate(0 0) rotate(270)"><path d="M7.8 0 C19.3 -0.9 34 -2.8 38.6 -17.5" stroke-width="1.3" opacity="1" /><path d="M38.6 -17.5 q2.8 -6.4 -3.7 -8.3" stroke-width="1" opacity="1" /></g><g transform="translate(0 0) rotate(315)"><path d="M7.8 0 C19.3 -0.9 34 -2.8 38.6 -17.5" stroke-width="1.3" opacity="1" /><path d="M38.6 -17.5 q2.8 -6.4 -3.7 -8.3" stroke-width="1" opacity="1" /></g></g>
<g transform="translate(1370 400)"><ellipse cx="0" cy="3" rx="30" ry="27.6" stroke-width="1.6"/><polyline points="-9,-21.6 -10.2,-31.2 -5.1,-25.8 0,-33.6 5.1,-25.8 10.2,-31.2 9,-21.6" stroke-width="1.3"/><path d="M-9 -21.6 Q0 -16.8 9 -21.6" stroke-width="0.9" opacity="0.8" /><path d="M-5.8 -16.2 C-24.8 -6 -23.2 16.5 -10.2 28.2" stroke-width="0.9" opacity="0.8" /><path d="M0 -16.2 C0 -6 0 16.5 0 28.2" stroke-width="0.9" opacity="0.8" /><path d="M5.8 -16.2 C24.8 -6 23.2 16.5 10.2 28.2" stroke-width="0.9" opacity="0.8" /><circle cx="-15" cy="1.5" r="1.5" stroke-width="0.9"/><circle cx="-7.5" cy="9.6" r="1.5" stroke-width="0.9"/><circle cx="0" cy="2.4" r="1.5" stroke-width="0.9"/><circle cx="7.5" cy="9.6" r="1.5" stroke-width="0.9"/><circle cx="15" cy="1.5" r="1.5" stroke-width="0.9"/><circle cx="-3.6" cy="18.6" r="1.5" stroke-width="0.9"/><circle cx="4.8" cy="18.6" r="1.5" stroke-width="0.9"/><circle cx="0" cy="-9" r="1.5" stroke-width="0.9"/><circle cx="-16.5" cy="12.6" r="1.5" stroke-width="0.9"/><circle cx="16.5" cy="12.6" r="1.5" stroke-width="0.9"/><circle cx="-9.6" cy="-3.6" r="1.5" stroke-width="0.9"/><circle cx="9.6" cy="-3.6" r="1.5" stroke-width="0.9"/><path d="M1.8 -25.2 q1.5 -6.6 6.6 -9" stroke-width="1.1" opacity="1" /><path d="M8.4 -33.6 C18 -43.2 34.5 -37.2 39 -26.4 C28.5 -25.2 15 -26.4 8.4 -33.6" stroke-width="1" opacity="1" /><path d="M12 -31.2 L34.5 -29.4" stroke-width="0.7" opacity="0.8" /></g>
<g transform="translate(1505 350)"><ellipse cx="0" cy="2.6" rx="26" ry="23.9" stroke-width="1.6"/><polyline points="-7.8,-18.7 -8.8,-27 -4.4,-22.4 0,-29.1 4.4,-22.4 8.8,-27 7.8,-18.7" stroke-width="1.3"/><path d="M-7.8 -18.7 Q0 -14.6 7.8 -18.7" stroke-width="0.9" opacity="0.8" /><path d="M-5 -14 C-21.5 -5.2 -20.2 14.3 -8.9 24.4" stroke-width="0.9" opacity="0.8" /><path d="M0 -14 C0 -5.2 0 14.3 0 24.4" stroke-width="0.9" opacity="0.8" /><path d="M5 -14 C21.5 -5.2 20.2 14.3 8.9 24.4" stroke-width="0.9" opacity="0.8" /><circle cx="-13" cy="1.3" r="1.3" stroke-width="0.9"/><circle cx="-6.5" cy="8.3" r="1.3" stroke-width="0.9"/><circle cx="0" cy="2.1" r="1.3" stroke-width="0.9"/><circle cx="6.5" cy="8.3" r="1.3" stroke-width="0.9"/><circle cx="13" cy="1.3" r="1.3" stroke-width="0.9"/><circle cx="-3.1" cy="16.1" r="1.3" stroke-width="0.9"/><circle cx="4.2" cy="16.1" r="1.3" stroke-width="0.9"/><circle cx="0" cy="-7.8" r="1.3" stroke-width="0.9"/><circle cx="-14.3" cy="10.9" r="1.3" stroke-width="0.9"/><circle cx="14.3" cy="10.9" r="1.3" stroke-width="0.9"/><circle cx="-8.3" cy="-3.1" r="1.3" stroke-width="0.9"/><circle cx="8.3" cy="-3.1" r="1.3" stroke-width="0.9"/><path d="M1.6 -21.8 q1.3 -5.7 5.7 -7.8" stroke-width="1.1" opacity="1" /><path d="M7.3 -29.1 C15.6 -37.4 29.9 -32.2 33.8 -22.9 C24.7 -21.8 13 -22.9 7.3 -29.1" stroke-width="1" opacity="1" /><path d="M10.4 -27 L29.9 -25.5" stroke-width="0.7" opacity="0.8" /></g>
<g transform="translate(1450 480)"><ellipse cx="0" cy="3.2" rx="32" ry="29.4" stroke-width="1.6"/><polyline points="-9.6,-23 -10.9,-33.3 -5.4,-27.5 0,-35.8 5.4,-27.5 10.9,-33.3 9.6,-23" stroke-width="1.3"/><path d="M-9.6 -23 Q0 -17.9 9.6 -23" stroke-width="0.9" opacity="0.8" /><path d="M-6.2 -17.3 C-26.4 -6.4 -24.8 17.6 -10.9 30.1" stroke-width="0.9" opacity="0.8" /><path d="M0 -17.3 C0 -6.4 0 17.6 0 30.1" stroke-width="0.9" opacity="0.8" /><path d="M6.2 -17.3 C26.4 -6.4 24.8 17.6 10.9 30.1" stroke-width="0.9" opacity="0.8" /><circle cx="-16" cy="1.6" r="1.6" stroke-width="0.9"/><circle cx="-8" cy="10.2" r="1.6" stroke-width="0.9"/><circle cx="0" cy="2.6" r="1.6" stroke-width="0.9"/><circle cx="8" cy="10.2" r="1.6" stroke-width="0.9"/><circle cx="16" cy="1.6" r="1.6" stroke-width="0.9"/><circle cx="-3.8" cy="19.8" r="1.6" stroke-width="0.9"/><circle cx="5.1" cy="19.8" r="1.6" stroke-width="0.9"/><circle cx="0" cy="-9.6" r="1.6" stroke-width="0.9"/><circle cx="-17.6" cy="13.4" r="1.6" stroke-width="0.9"/><circle cx="17.6" cy="13.4" r="1.6" stroke-width="0.9"/><circle cx="-10.2" cy="-3.8" r="1.6" stroke-width="0.9"/><circle cx="10.2" cy="-3.8" r="1.6" stroke-width="0.9"/><path d="M1.9 -26.9 q1.6 -7 7 -9.6" stroke-width="1.1" opacity="1" /><path d="M9 -35.8 C19.2 -46.1 36.8 -39.7 41.6 -28.2 C30.4 -26.9 16 -28.2 9 -35.8" stroke-width="1" opacity="1" /><path d="M12.8 -33.3 L36.8 -31.4" stroke-width="0.7" opacity="0.8" /></g>
</g>
</svg>
